<?xml version="1.0" encoding="utf-8"?><svg xmlns="http://www.w3.org/2000/svg" xmlns:xlink="http://www.w3.org/1999/xlink" width="81px" height="81px" viewBox="0 0 100 100" preserveAspectRatio="xMidYMid" style="margin-right:-2px;display:block;background-color:rgb(255, 255, 255);animation-play-state:paused" ><g transform="translate(50 50)" style="transform:matrix(1, 0, 0, 1, 50, 50);animation-play-state:paused" ><g transform="matrix(1,0,0,1,0,0)" style="transform:matrix(1, 0, 0, 1, 0, 0);animation-play-state:paused" ><path d="M31.606961258558215 -5 L41.606961258558215 -5 L41.606961258558215 5 L31.606961258558215 5 A32 32 0 0 1 27.42627508442804 16.486340861248795 L27.42627508442804 16.486340861248795 L35.086719515617816 22.91421695811419 L28.658843418752426 30.574661389303973 L20.998398987562645 24.14678529243858 A32 32 0 0 1 10.412529989198942 30.258539608249976 L10.412529989198942 30.258539608249976 L12.149011765868247 40.10661713837206 L2.300934235746171 41.84309891504136 L0.5644524590768665 31.99502138491928 A32 32 0 0 1 -11.473353610356911 29.87243138634199 L-11.473353610356911 29.87243138634199 L-16.47335361035691 38.532685424186376 L-25.13360764820129 33.53268542418638 L-20.133607648201295 24.872431386341994 A32 32 0 0 1 -27.9907275435049 15.508680523670485 L-27.9907275435049 15.508680523670485 L-37.387653751363985 18.928881956927174 L-40.80785518462067 9.531955749068095 L-31.410928976761586 6.111754315811406 A32 32 0 0 1 -31.41092897676159 -6.111754315811398 L-31.41092897676159 -6.111754315811398 L-40.80785518462068 -9.531955749068084 L-37.387653751363985 -18.928881956927164 L-27.990727543504903 -15.508680523670478 A32 32 0 0 1 -20.133607648201313 -24.87243138634198 L-20.133607648201313 -24.87243138634198 L-25.133607648201316 -33.53268542418636 L-16.473353610356934 -38.53268542418637 L-11.47335361035693 -29.872431386341983 A32 32 0 0 1 0.5644524590768515 -31.99502138491928 L0.5644524590768515 -31.99502138491928 L2.3009342357461513 -41.84309891504136 L12.149011765868227 -40.106617138372066 L10.412529989198928 -30.258539608249983 A32 32 0 0 1 20.99839898756264 -24.146785292438583 L20.99839898756264 -24.146785292438583 L28.65884341875242 -30.57466138930398 L35.08671951561781 -22.914216958114206 L27.42627508442803 -16.48634086124881 A32 32 0 0 1 31.606961258558215 -5.000000000000005 M0 -22A22 22 0 1 0 0 22 A22 22 0 1 0 0 -22" fill="#a95be1" style="animation-play-state:paused" ></path></g></g><!-- generated by https://loading.io/ --></svg>